<?xml version="1.0" encoding="UTF-8" standalone="no"?>
<!DOCTYPE svg PUBLIC "-//W3C//DTD SVG 1.1//EN"
 "http://www.w3.org/Graphics/SVG/1.1/DTD/svg11.dtd">
<!-- Generated by graphviz version 2.40.1 (20161225.0304)
 -->
<!-- Title: snakemake_dag Pages: 1 -->
<svg width="1448pt" height="1561pt"
 viewBox="0.00 0.00 1448.00 1561.00" xmlns="http://www.w3.org/2000/svg" xmlns:xlink="http://www.w3.org/1999/xlink">
<g id="graph0" class="graph" transform="scale(1 1) rotate(0) translate(4 1557)">
<title>snakemake_dag</title>
<polygon fill="#ffffff" stroke="transparent" points="-4,4 -4,-1557 1444,-1557 1444,4 -4,4"/>
<!-- 0 -->
<g id="node1" class="node">
<title>0</title>
<path fill="none" stroke="#56d87b" stroke-width="2" stroke-dasharray="5,2" d="M1132,-401C1132,-401 1102,-401 1102,-401 1096,-401 1090,-395 1090,-389 1090,-389 1090,-377 1090,-377 1090,-371 1096,-365 1102,-365 1102,-365 1132,-365 1132,-365 1138,-365 1144,-371 1144,-377 1144,-377 1144,-389 1144,-389 1144,-395 1138,-401 1132,-401"/>
<text text-anchor="middle" x="1117" y="-380.5" font-family="sans" font-size="10.00" fill="#000000">vep</text>
</g>
<!-- 51 -->
<g id="node52" class="node">
<title>51</title>
<path fill="none" stroke="#d8c356" stroke-width="2" stroke-dasharray="5,2" d="M1153.5,-329C1153.5,-329 1110.5,-329 1110.5,-329 1104.5,-329 1098.5,-323 1098.5,-317 1098.5,-317 1098.5,-305 1098.5,-305 1098.5,-299 1104.5,-293 1110.5,-293 1110.5,-293 1153.5,-293 1153.5,-293 1159.5,-293 1165.5,-299 1165.5,-305 1165.5,-305 1165.5,-317 1165.5,-317 1165.5,-323 1159.5,-329 1153.5,-329"/>
<text text-anchor="middle" x="1132" y="-308.5" font-family="sans" font-size="10.00" fill="#000000">index_vep</text>
</g>
<!-- 0&#45;&gt;51 -->
<g id="edge72" class="edge">
<title>0&#45;&gt;51</title>
<path fill="none" stroke="#c0c0c0" stroke-width="2" d="M1120.7851,-364.8314C1122.3894,-357.131 1124.297,-347.9743 1126.0799,-339.4166"/>
<polygon fill="#c0c0c0" stroke="#c0c0c0" stroke-width="2" points="1129.5507,-339.9169 1128.1639,-329.4133 1122.6979,-338.4892 1129.5507,-339.9169"/>
</g>
<!-- 1 -->
<g id="node2" class="node">
<title>1</title>
<path fill="none" stroke="#56d8a2" stroke-width="2" stroke-dasharray="5,2" d="M1182.5,-617C1182.5,-617 1075.5,-617 1075.5,-617 1069.5,-617 1063.5,-611 1063.5,-605 1063.5,-605 1063.5,-593 1063.5,-593 1063.5,-587 1069.5,-581 1075.5,-581 1075.5,-581 1182.5,-581 1182.5,-581 1188.5,-581 1194.5,-587 1194.5,-593 1194.5,-593 1194.5,-605 1194.5,-605 1194.5,-611 1188.5,-617 1182.5,-617"/>
<text text-anchor="middle" x="1129" y="-596.5" font-family="sans" font-size="10.00" fill="#000000">gatk_apply_vqsr_indels</text>
</g>
<!-- 10 -->
<g id="node11" class="node">
<title>10</title>
<path fill="none" stroke="#d89c56" stroke-width="2" stroke-dasharray="5,2" d="M1208.5,-545C1208.5,-545 1137.5,-545 1137.5,-545 1131.5,-545 1125.5,-539 1125.5,-533 1125.5,-533 1125.5,-521 1125.5,-521 1125.5,-515 1131.5,-509 1137.5,-509 1137.5,-509 1208.5,-509 1208.5,-509 1214.5,-509 1220.5,-515 1220.5,-521 1220.5,-521 1220.5,-533 1220.5,-533 1220.5,-539 1214.5,-545 1208.5,-545"/>
<text text-anchor="middle" x="1173" y="-524.5" font-family="sans" font-size="10.00" fill="#000000">index_vqsr_vcfs</text>
</g>
<!-- 1&#45;&gt;10 -->
<g id="edge13" class="edge">
<title>1&#45;&gt;10</title>
<path fill="none" stroke="#c0c0c0" stroke-width="2" d="M1140.1031,-580.8314C1145.0674,-572.7079 1151.0222,-562.9637 1156.4928,-554.0118"/>
<polygon fill="#c0c0c0" stroke="#c0c0c0" stroke-width="2" points="1159.5194,-555.7712 1161.7474,-545.4133 1153.5464,-552.121 1159.5194,-555.7712"/>
</g>
<!-- 50 -->
<g id="node51" class="node">
<title>50</title>
<path fill="none" stroke="#5663d8" stroke-width="2" stroke-dasharray="5,2" d="M1142,-473C1142,-473 1074,-473 1074,-473 1068,-473 1062,-467 1062,-461 1062,-461 1062,-449 1062,-449 1062,-443 1068,-437 1074,-437 1074,-437 1142,-437 1142,-437 1148,-437 1154,-443 1154,-449 1154,-449 1154,-461 1154,-461 1154,-467 1148,-473 1142,-473"/>
<text text-anchor="middle" x="1108" y="-452.5" font-family="sans" font-size="10.00" fill="#000000">gatk_filter_vars</text>
</g>
<!-- 1&#45;&gt;50 -->
<g id="edge71" class="edge">
<title>1&#45;&gt;50</title>
<path fill="none" stroke="#c0c0c0" stroke-width="2" d="M1123.8679,-580.643C1121.145,-570.2588 1117.9651,-556.99 1116,-545 1112.6225,-524.3921 1110.5943,-500.8794 1109.4255,-483.0558"/>
<polygon fill="#c0c0c0" stroke="#c0c0c0" stroke-width="2" points="1112.9164,-482.7978 1108.8187,-473.0275 1105.9292,-483.2207 1112.9164,-482.7978"/>
</g>
<!-- 2 -->
<g id="node3" class="node">
<title>2</title>
<path fill="none" stroke="#d87d56" stroke-width="2" stroke-dasharray="5,2" d="M1222.5,-689C1222.5,-689 1097.5,-689 1097.5,-689 1091.5,-689 1085.5,-683 1085.5,-677 1085.5,-677 1085.5,-665 1085.5,-665 1085.5,-659 1091.5,-653 1097.5,-653 1097.5,-653 1222.5,-653 1222.5,-653 1228.5,-653 1234.5,-659 1234.5,-665 1234.5,-665 1234.5,-677 1234.5,-677 1234.5,-683 1228.5,-689 1222.5,-689"/>
<text text-anchor="middle" x="1160" y="-674" font-family="sans" font-size="10.00" fill="#000000">gatk_calculate_vqsr_indels</text>
<text text-anchor="middle" x="1160" y="-663" font-family="sans" font-size="10.00" fill="#000000">pipeline: gdb</text>
</g>
<!-- 2&#45;&gt;1 -->
<g id="edge2" class="edge">
<title>2&#45;&gt;1</title>
<path fill="none" stroke="#c0c0c0" stroke-width="2" d="M1152.1774,-652.8314C1148.7891,-644.9617 1144.7459,-635.5712 1140.9924,-626.8533"/>
<polygon fill="#c0c0c0" stroke="#c0c0c0" stroke-width="2" points="1144.0973,-625.214 1136.9279,-617.4133 1137.6679,-627.9822 1144.0973,-625.214"/>
</g>
<!-- 3 -->
<g id="node4" class="node">
<title>3</title>
<path fill="none" stroke="#5682d8" stroke-width="2" stroke-dasharray="5,2" d="M1031,-977C1031,-977 985,-977 985,-977 979,-977 973,-971 973,-965 973,-965 973,-953 973,-953 973,-947 979,-941 985,-941 985,-941 1031,-941 1031,-941 1037,-941 1043,-947 1043,-953 1043,-953 1043,-965 1043,-965 1043,-971 1037,-977 1031,-977"/>
<text text-anchor="middle" x="1008" y="-956.5" font-family="sans" font-size="10.00" fill="#000000">gvcf_paths</text>
</g>
<!-- 27 -->
<g id="node28" class="node">
<title>27</title>
<path fill="none" stroke="#56a9d8" stroke-width="2" stroke-dasharray="5,2" d="M1060.5,-905C1060.5,-905 981.5,-905 981.5,-905 975.5,-905 969.5,-899 969.5,-893 969.5,-893 969.5,-881 969.5,-881 969.5,-875 975.5,-869 981.5,-869 981.5,-869 1060.5,-869 1060.5,-869 1066.5,-869 1072.5,-875 1072.5,-881 1072.5,-881 1072.5,-893 1072.5,-893 1072.5,-899 1066.5,-905 1060.5,-905"/>
<text text-anchor="middle" x="1021" y="-884.5" font-family="sans" font-size="10.00" fill="#000000">gatk_genomicsdb</text>
</g>
<!-- 3&#45;&gt;27 -->
<g id="edge36" class="edge">
<title>3&#45;&gt;27</title>
<path fill="none" stroke="#c0c0c0" stroke-width="2" d="M1011.2804,-940.8314C1012.6708,-933.131 1014.3241,-923.9743 1015.8692,-915.4166"/>
<polygon fill="#c0c0c0" stroke="#c0c0c0" stroke-width="2" points="1019.3428,-915.8761 1017.6754,-905.4133 1012.4542,-914.6322 1019.3428,-915.8761"/>
</g>
<!-- 4 -->
<g id="node5" class="node">
<title>4</title>
<path fill="none" stroke="#d87556" stroke-width="2" stroke-dasharray="5,2" d="M808,-1193C808,-1193 734,-1193 734,-1193 728,-1193 722,-1187 722,-1181 722,-1181 722,-1169 722,-1169 722,-1163 728,-1157 734,-1157 734,-1157 808,-1157 808,-1157 814,-1157 820,-1163 820,-1169 820,-1169 820,-1181 820,-1181 820,-1187 814,-1193 808,-1193"/>
<text text-anchor="middle" x="771" y="-1172.5" font-family="sans" font-size="10.00" fill="#000000">gatk_bam_index</text>
</g>
<!-- 8 -->
<g id="node9" class="node">
<title>8</title>
<path fill="none" stroke="#56d8b1" stroke-width="2" stroke-dasharray="5,2" d="M852.5,-1121C852.5,-1121 751.5,-1121 751.5,-1121 745.5,-1121 739.5,-1115 739.5,-1109 739.5,-1109 739.5,-1097 739.5,-1097 739.5,-1091 745.5,-1085 751.5,-1085 751.5,-1085 852.5,-1085 852.5,-1085 858.5,-1085 864.5,-1091 864.5,-1097 864.5,-1097 864.5,-1109 864.5,-1109 864.5,-1115 858.5,-1121 852.5,-1121"/>
<text text-anchor="middle" x="802" y="-1100.5" font-family="sans" font-size="10.00" fill="#000000">gatk_haplotype_caller</text>
</g>
<!-- 4&#45;&gt;8 -->
<g id="edge10" class="edge">
<title>4&#45;&gt;8</title>
<path fill="none" stroke="#c0c0c0" stroke-width="2" d="M778.8226,-1156.8314C782.2109,-1148.9617 786.2541,-1139.5712 790.0076,-1130.8533"/>
<polygon fill="#c0c0c0" stroke="#c0c0c0" stroke-width="2" points="793.3321,-1131.9822 794.0721,-1121.4133 786.9027,-1129.214 793.3321,-1131.9822"/>
</g>
<!-- 42 -->
<g id="node43" class="node">
<title>42</title>
<path fill="none" stroke="#5692d8" stroke-width="2" d="M709.5,-1121C709.5,-1121 638.5,-1121 638.5,-1121 632.5,-1121 626.5,-1115 626.5,-1109 626.5,-1109 626.5,-1097 626.5,-1097 626.5,-1091 632.5,-1085 638.5,-1085 638.5,-1085 709.5,-1085 709.5,-1085 715.5,-1085 721.5,-1091 721.5,-1097 721.5,-1097 721.5,-1109 721.5,-1109 721.5,-1115 715.5,-1121 709.5,-1121"/>
<text text-anchor="middle" x="674" y="-1100.5" font-family="sans" font-size="10.00" fill="#000000">gatk_bam_stats</text>
</g>
<!-- 4&#45;&gt;42 -->
<g id="edge60" class="edge">
<title>4&#45;&gt;42</title>
<path fill="none" stroke="#c0c0c0" stroke-width="2" d="M746.5228,-1156.8314C734.4605,-1147.8779 719.746,-1136.9558 706.7314,-1127.2955"/>
<polygon fill="#c0c0c0" stroke="#c0c0c0" stroke-width="2" points="708.5852,-1124.3127 698.4694,-1121.1628 704.413,-1129.9335 708.5852,-1124.3127"/>
</g>
<!-- 5 -->
<g id="node6" class="node">
<title>5</title>
<path fill="none" stroke="#afd856" stroke-width="2" d="M546,-185C546,-185 444,-185 444,-185 438,-185 432,-179 432,-173 432,-173 432,-156 432,-156 432,-150 438,-144 444,-144 444,-144 546,-144 546,-144 552,-144 558,-150 558,-156 558,-156 558,-173 558,-173 558,-179 552,-185 546,-185"/>
<text text-anchor="middle" x="495" y="-173" font-family="sans" font-size="10.00" fill="#000000">fastqc</text>
<text text-anchor="middle" x="495" y="-162" font-family="sans" font-size="10.00" fill="#000000">read: 2</text>
<text text-anchor="middle" x="495" y="-151" font-family="sans" font-size="10.00" fill="#000000">sample: SRR22268942</text>
</g>
<!-- 15 -->
<g id="node16" class="node">
<title>15</title>
<path fill="none" stroke="#569ad8" stroke-width="2" d="M383.5,-108C383.5,-108 318.5,-108 318.5,-108 312.5,-108 306.5,-102 306.5,-96 306.5,-96 306.5,-84 306.5,-84 306.5,-78 312.5,-72 318.5,-72 318.5,-72 383.5,-72 383.5,-72 389.5,-72 395.5,-78 395.5,-84 395.5,-84 395.5,-96 395.5,-96 395.5,-102 389.5,-108 383.5,-108"/>
<text text-anchor="middle" x="351" y="-87.5" font-family="sans" font-size="10.00" fill="#000000">multiqc_fastqc</text>
</g>
<!-- 5&#45;&gt;15 -->
<g id="edge18" class="edge">
<title>5&#45;&gt;15</title>
<path fill="none" stroke="#c0c0c0" stroke-width="2" d="M455.2702,-143.9453C436.6694,-134.322 414.4456,-122.8243 395.3033,-112.9208"/>
<polygon fill="#c0c0c0" stroke="#c0c0c0" stroke-width="2" points="396.6732,-109.6889 386.1832,-108.2024 393.4566,-115.9061 396.6732,-109.6889"/>
</g>
<!-- 6 -->
<g id="node7" class="node">
<title>6</title>
<path fill="none" stroke="#d8bc56" stroke-width="2" stroke-dasharray="5,2" d="M1055.5,-689C1055.5,-689 954.5,-689 954.5,-689 948.5,-689 942.5,-683 942.5,-677 942.5,-677 942.5,-665 942.5,-665 942.5,-659 948.5,-653 954.5,-653 954.5,-653 1055.5,-653 1055.5,-653 1061.5,-653 1067.5,-659 1067.5,-665 1067.5,-665 1067.5,-677 1067.5,-677 1067.5,-683 1061.5,-689 1055.5,-689"/>
<text text-anchor="middle" x="1005" y="-668.5" font-family="sans" font-size="10.00" fill="#000000">gatk_apply_vqsr_snps</text>
</g>
<!-- 6&#45;&gt;1 -->
<g id="edge3" class="edge">
<title>6&#45;&gt;1</title>
<path fill="none" stroke="#c0c0c0" stroke-width="2" d="M1036.2904,-652.8314C1052.2977,-643.5368 1071.9586,-632.1208 1089.0494,-622.1971"/>
<polygon fill="#c0c0c0" stroke="#c0c0c0" stroke-width="2" points="1090.8292,-625.211 1097.7196,-617.1628 1087.3142,-619.1575 1090.8292,-625.211"/>
</g>
<!-- 7 -->
<g id="node8" class="node">
<title>7</title>
<path fill="none" stroke="#d88d56" stroke-width="2" stroke-dasharray="5,2" d="M1087,-833C1087,-833 967,-833 967,-833 961,-833 955,-827 955,-821 955,-821 955,-809 955,-809 955,-803 961,-797 967,-797 967,-797 1087,-797 1087,-797 1093,-797 1099,-803 1099,-809 1099,-809 1099,-821 1099,-821 1099,-827 1093,-833 1087,-833"/>
<text text-anchor="middle" x="1027" y="-812.5" font-family="sans" font-size="10.00" fill="#000000">gatk_genotype_gvcfs_gdb</text>
</g>
<!-- 7&#45;&gt;2 -->
<g id="edge4" class="edge">
<title>7&#45;&gt;2</title>
<path fill="none" stroke="#c0c0c0" stroke-width="2" d="M1099.0443,-802.1547C1142.5001,-792.7761 1191.9189,-778.6383 1205,-761 1219.7509,-741.1102 1204.3695,-715.6532 1187.7024,-696.8924"/>
<polygon fill="#c0c0c0" stroke="#c0c0c0" stroke-width="2" points="1189.9637,-694.1877 1180.5648,-689.2977 1184.8628,-698.9816 1189.9637,-694.1877"/>
</g>
<!-- 7&#45;&gt;6 -->
<g id="edge7" class="edge">
<title>7&#45;&gt;6</title>
<path fill="none" stroke="#c0c0c0" stroke-width="2" d="M1024.2137,-796.7623C1020.4613,-772.201 1013.7461,-728.2474 1009.3319,-699.3541"/>
<polygon fill="#c0c0c0" stroke="#c0c0c0" stroke-width="2" points="1012.7339,-698.4463 1007.7637,-689.0896 1005.8142,-699.5035 1012.7339,-698.4463"/>
</g>
<!-- 35 -->
<g id="node36" class="node">
<title>35</title>
<path fill="none" stroke="#d8ac56" stroke-width="2" stroke-dasharray="5,2" d="M1184,-761C1184,-761 1066,-761 1066,-761 1060,-761 1054,-755 1054,-749 1054,-749 1054,-737 1054,-737 1054,-731 1060,-725 1066,-725 1066,-725 1184,-725 1184,-725 1190,-725 1196,-731 1196,-737 1196,-737 1196,-749 1196,-749 1196,-755 1190,-761 1184,-761"/>
<text text-anchor="middle" x="1125" y="-746" font-family="sans" font-size="10.00" fill="#000000">gatk_calculate_vqsr_snps</text>
<text text-anchor="middle" x="1125" y="-735" font-family="sans" font-size="10.00" fill="#000000">pipeline: gdb</text>
</g>
<!-- 7&#45;&gt;35 -->
<g id="edge54" class="edge">
<title>7&#45;&gt;35</title>
<path fill="none" stroke="#c0c0c0" stroke-width="2" d="M1051.7295,-796.8314C1063.9162,-787.8779 1078.7823,-776.9558 1091.9312,-767.2955"/>
<polygon fill="#c0c0c0" stroke="#c0c0c0" stroke-width="2" points="1094.2918,-769.9042 1100.2784,-761.1628 1090.1473,-764.263 1094.2918,-769.9042"/>
</g>
<!-- 57 -->
<g id="node58" class="node">
<title>57</title>
<path fill="none" stroke="#d8d356" stroke-width="2" stroke-dasharray="5,2" d="M1030.5,-1049C1030.5,-1049 981.5,-1049 981.5,-1049 975.5,-1049 969.5,-1043 969.5,-1037 969.5,-1037 969.5,-1025 969.5,-1025 969.5,-1019 975.5,-1013 981.5,-1013 981.5,-1013 1030.5,-1013 1030.5,-1013 1036.5,-1013 1042.5,-1019 1042.5,-1025 1042.5,-1025 1042.5,-1037 1042.5,-1037 1042.5,-1043 1036.5,-1049 1030.5,-1049"/>
<text text-anchor="middle" x="1006" y="-1028.5" font-family="sans" font-size="10.00" fill="#000000">gvcf_locate</text>
</g>
<!-- 8&#45;&gt;57 -->
<g id="edge78" class="edge">
<title>8&#45;&gt;57</title>
<path fill="none" stroke="#c0c0c0" stroke-width="2" d="M854.4518,-1084.9718C884.5128,-1074.5782 922.9259,-1061.193 957,-1049 957.8773,-1048.6861 958.7631,-1048.3683 959.6555,-1048.0476"/>
<polygon fill="#c0c0c0" stroke="#c0c0c0" stroke-width="2" points="961.1553,-1051.227 969.3676,-1044.5331 958.7733,-1044.6447 961.1553,-1051.227"/>
</g>
<!-- 9 -->
<g id="node10" class="node">
<title>9</title>
<path fill="none" stroke="#56d87b" stroke-width="2" stroke-dasharray="5,2" d="M861,-401C861,-401 831,-401 831,-401 825,-401 819,-395 819,-389 819,-389 819,-377 819,-377 819,-371 825,-365 831,-365 831,-365 861,-365 861,-365 867,-365 873,-371 873,-377 873,-377 873,-389 873,-389 873,-395 867,-401 861,-401"/>
<text text-anchor="middle" x="846" y="-380.5" font-family="sans" font-size="10.00" fill="#000000">vep</text>
</g>
<!-- 48 -->
<g id="node49" class="node">
<title>48</title>
<path fill="none" stroke="#d8c356" stroke-width="2" stroke-dasharray="5,2" d="M851.5,-329C851.5,-329 808.5,-329 808.5,-329 802.5,-329 796.5,-323 796.5,-317 796.5,-317 796.5,-305 796.5,-305 796.5,-299 802.5,-293 808.5,-293 808.5,-293 851.5,-293 851.5,-293 857.5,-293 863.5,-299 863.5,-305 863.5,-305 863.5,-317 863.5,-317 863.5,-323 857.5,-329 851.5,-329"/>
<text text-anchor="middle" x="830" y="-308.5" font-family="sans" font-size="10.00" fill="#000000">index_vep</text>
</g>
<!-- 9&#45;&gt;48 -->
<g id="edge67" class="edge">
<title>9&#45;&gt;48</title>
<path fill="none" stroke="#c0c0c0" stroke-width="2" d="M841.9625,-364.8314C840.2513,-357.131 838.2165,-347.9743 836.3148,-339.4166"/>
<polygon fill="#c0c0c0" stroke="#c0c0c0" stroke-width="2" points="839.6779,-338.4159 834.0918,-329.4133 832.8446,-339.9344 839.6779,-338.4159"/>
</g>
<!-- 10&#45;&gt;50 -->
<g id="edge70" class="edge">
<title>10&#45;&gt;50</title>
<path fill="none" stroke="#c0c0c0" stroke-width="2" d="M1156.5978,-508.8314C1148.9585,-500.3694 1139.7317,-490.1489 1131.3793,-480.8971"/>
<polygon fill="#c0c0c0" stroke="#c0c0c0" stroke-width="2" points="1133.9221,-478.4906 1124.6231,-473.4133 1128.7262,-483.1813 1133.9221,-478.4906"/>
</g>
<!-- 11 -->
<g id="node12" class="node">
<title>11</title>
<path fill="none" stroke="#56b9d8" stroke-width="2" stroke-dasharray="5,2" d="M882,-1265C882,-1265 814,-1265 814,-1265 808,-1265 802,-1259 802,-1253 802,-1253 802,-1241 802,-1241 802,-1235 808,-1229 814,-1229 814,-1229 882,-1229 882,-1229 888,-1229 894,-1235 894,-1241 894,-1241 894,-1253 894,-1253 894,-1259 888,-1265 882,-1265"/>
<text text-anchor="middle" x="848" y="-1244.5" font-family="sans" font-size="10.00" fill="#000000">gatk_fix_mates</text>
</g>
<!-- 11&#45;&gt;4 -->
<g id="edge6" class="edge">
<title>11&#45;&gt;4</title>
<path fill="none" stroke="#c0c0c0" stroke-width="2" d="M828.5696,-1228.8314C819.268,-1220.1337 807.9796,-1209.5783 797.8714,-1200.1265"/>
<polygon fill="#c0c0c0" stroke="#c0c0c0" stroke-width="2" points="800.1189,-1197.4363 790.4241,-1193.1628 795.3379,-1202.5493 800.1189,-1197.4363"/>
</g>
<!-- 11&#45;&gt;8 -->
<g id="edge11" class="edge">
<title>11&#45;&gt;8</title>
<path fill="none" stroke="#c0c0c0" stroke-width="2" d="M845.5409,-1228.7005C842.7376,-1210.2489 837.4209,-1181.1235 829,-1157 825.8878,-1148.0844 821.622,-1138.7559 817.4002,-1130.4095"/>
<polygon fill="#c0c0c0" stroke="#c0c0c0" stroke-width="2" points="820.4601,-1128.7083 812.716,-1121.4778 814.2609,-1131.9594 820.4601,-1128.7083"/>
</g>
<!-- 28 -->
<g id="node29" class="node">
<title>28</title>
<path fill="none" stroke="#d85656" stroke-width="2" stroke-dasharray="5,2" d="M1012.5,-1193C1012.5,-1193 945.5,-1193 945.5,-1193 939.5,-1193 933.5,-1187 933.5,-1181 933.5,-1181 933.5,-1169 933.5,-1169 933.5,-1163 939.5,-1157 945.5,-1157 945.5,-1157 1012.5,-1157 1012.5,-1157 1018.5,-1157 1024.5,-1163 1024.5,-1169 1024.5,-1169 1024.5,-1181 1024.5,-1181 1024.5,-1187 1018.5,-1193 1012.5,-1193"/>
<text text-anchor="middle" x="979" y="-1172.5" font-family="sans" font-size="10.00" fill="#000000">samtools_stats</text>
</g>
<!-- 11&#45;&gt;28 -->
<g id="edge37" class="edge">
<title>11&#45;&gt;28</title>
<path fill="none" stroke="#c0c0c0" stroke-width="2" d="M881.0568,-1228.8314C897.9677,-1219.5368 918.7385,-1208.1208 936.7941,-1198.1971"/>
<polygon fill="#c0c0c0" stroke="#c0c0c0" stroke-width="2" points="938.876,-1201.0468 945.9537,-1193.1628 935.5043,-1194.9122 938.876,-1201.0468"/>
</g>
<!-- 11&#45;&gt;42 -->
<g id="edge61" class="edge">
<title>11&#45;&gt;42</title>
<path fill="none" stroke="#c0c0c0" stroke-width="2" d="M801.7688,-1237.9604C773.1068,-1230.2664 737.2555,-1216.5762 713,-1193 695.8177,-1176.2989 685.7414,-1150.7668 680.1505,-1131.1574"/>
<polygon fill="#c0c0c0" stroke="#c0c0c0" stroke-width="2" points="683.4739,-1130.0318 677.5555,-1121.2441 676.702,-1131.8045 683.4739,-1130.0318"/>
</g>
<!-- 54 -->
<g id="node55" class="node">
<title>54</title>
<path fill="none" stroke="#97d856" stroke-width="2" d="M936,-1049C936,-1049 848,-1049 848,-1049 842,-1049 836,-1043 836,-1037 836,-1037 836,-1025 836,-1025 836,-1019 842,-1013 848,-1013 848,-1013 936,-1013 936,-1013 942,-1013 948,-1019 948,-1025 948,-1025 948,-1037 948,-1037 948,-1043 942,-1049 936,-1049"/>
<text text-anchor="middle" x="892" y="-1028.5" font-family="sans" font-size="10.00" fill="#000000">samtools_mpileups</text>
</g>
<!-- 11&#45;&gt;54 -->
<g id="edge74" class="edge">
<title>11&#45;&gt;54</title>
<path fill="none" stroke="#c0c0c0" stroke-width="2" d="M851.6757,-1228.9555C859.3434,-1191.3144 877.0916,-1104.1867 886.2709,-1059.1246"/>
<polygon fill="#c0c0c0" stroke="#c0c0c0" stroke-width="2" points="889.7372,-1059.6425 888.3038,-1049.1451 882.8781,-1058.2452 889.7372,-1059.6425"/>
</g>
<!-- 12 -->
<g id="node13" class="node">
<title>12</title>
<path fill="none" stroke="#56d88a" stroke-width="2" stroke-dasharray="5,2" d="M898.5,-833C898.5,-833 801.5,-833 801.5,-833 795.5,-833 789.5,-827 789.5,-821 789.5,-821 789.5,-809 789.5,-809 789.5,-803 795.5,-797 801.5,-797 801.5,-797 898.5,-797 898.5,-797 904.5,-797 910.5,-803 910.5,-809 910.5,-809 910.5,-821 910.5,-821 910.5,-827 904.5,-833 898.5,-833"/>
<text text-anchor="middle" x="850" y="-812.5" font-family="sans" font-size="10.00" fill="#000000">gatk_genotype_gvcfs</text>
</g>
<!-- 17 -->
<g id="node18" class="node">
<title>17</title>
<path fill="none" stroke="#d8bc56" stroke-width="2" stroke-dasharray="5,2" d="M872.5,-689C872.5,-689 771.5,-689 771.5,-689 765.5,-689 759.5,-683 759.5,-677 759.5,-677 759.5,-665 759.5,-665 759.5,-659 765.5,-653 771.5,-653 771.5,-653 872.5,-653 872.5,-653 878.5,-653 884.5,-659 884.5,-665 884.5,-665 884.5,-677 884.5,-677 884.5,-683 878.5,-689 872.5,-689"/>
<text text-anchor="middle" x="822" y="-668.5" font-family="sans" font-size="10.00" fill="#000000">gatk_apply_vqsr_snps</text>
</g>
<!-- 12&#45;&gt;17 -->
<g id="edge25" class="edge">
<title>12&#45;&gt;17</title>
<path fill="none" stroke="#c0c0c0" stroke-width="2" d="M846.4538,-796.7623C841.6569,-772.0928 833.0561,-727.8598 827.4392,-698.9731"/>
<polygon fill="#c0c0c0" stroke="#c0c0c0" stroke-width="2" points="830.8619,-698.2377 825.5174,-689.0896 823.9905,-699.5738 830.8619,-698.2377"/>
</g>
<!-- 29 -->
<g id="node30" class="node">
<title>29</title>
<path fill="none" stroke="#d87d56" stroke-width="2" stroke-dasharray="5,2" d="M986.5,-761C986.5,-761 861.5,-761 861.5,-761 855.5,-761 849.5,-755 849.5,-749 849.5,-749 849.5,-737 849.5,-737 849.5,-731 855.5,-725 861.5,-725 861.5,-725 986.5,-725 986.5,-725 992.5,-725 998.5,-731 998.5,-737 998.5,-737 998.5,-749 998.5,-749 998.5,-755 992.5,-761 986.5,-761"/>
<text text-anchor="middle" x="924" y="-746" font-family="sans" font-size="10.00" fill="#000000">gatk_calculate_vqsr_indels</text>
<text text-anchor="middle" x="924" y="-735" font-family="sans" font-size="10.00" fill="#000000">pipeline: cmb</text>
</g>
<!-- 12&#45;&gt;29 -->
<g id="edge38" class="edge">
<title>12&#45;&gt;29</title>
<path fill="none" stroke="#c0c0c0" stroke-width="2" d="M868.6733,-796.8314C877.5249,-788.219 888.2486,-777.7851 897.8895,-768.4048"/>
<polygon fill="#c0c0c0" stroke="#c0c0c0" stroke-width="2" points="900.6061,-770.645 905.3326,-761.1628 895.7246,-765.6279 900.6061,-770.645"/>
</g>
<!-- 37 -->
<g id="node38" class="node">
<title>37</title>
<path fill="none" stroke="#d8ac56" stroke-width="2" stroke-dasharray="5,2" d="M782,-761C782,-761 664,-761 664,-761 658,-761 652,-755 652,-749 652,-749 652,-737 652,-737 652,-731 658,-725 664,-725 664,-725 782,-725 782,-725 788,-725 794,-731 794,-737 794,-737 794,-749 794,-749 794,-755 788,-761 782,-761"/>
<text text-anchor="middle" x="723" y="-746" font-family="sans" font-size="10.00" fill="#000000">gatk_calculate_vqsr_snps</text>
<text text-anchor="middle" x="723" y="-735" font-family="sans" font-size="10.00" fill="#000000">pipeline: cmb</text>
</g>
<!-- 12&#45;&gt;37 -->
<g id="edge56" class="edge">
<title>12&#45;&gt;37</title>
<path fill="none" stroke="#c0c0c0" stroke-width="2" d="M817.9525,-796.8314C801.558,-787.5368 781.4214,-776.1208 763.9171,-766.1971"/>
<polygon fill="#c0c0c0" stroke="#c0c0c0" stroke-width="2" points="765.4626,-763.05 755.0372,-761.1628 762.0103,-769.1395 765.4626,-763.05"/>
</g>
<!-- 13 -->
<g id="node14" class="node">
<title>13</title>
<path fill="none" stroke="#5663d8" stroke-width="2" stroke-dasharray="5,2" d="M923,-473C923,-473 855,-473 855,-473 849,-473 843,-467 843,-461 843,-461 843,-449 843,-449 843,-443 849,-437 855,-437 855,-437 923,-437 923,-437 929,-437 935,-443 935,-449 935,-449 935,-461 935,-461 935,-467 929,-473 923,-473"/>
<text text-anchor="middle" x="889" y="-452.5" font-family="sans" font-size="10.00" fill="#000000">gatk_filter_vars</text>
</g>
<!-- 13&#45;&gt;9 -->
<g id="edge12" class="edge">
<title>13&#45;&gt;9</title>
<path fill="none" stroke="#c0c0c0" stroke-width="2" d="M878.1493,-436.8314C873.2977,-428.7079 867.4783,-418.9637 862.132,-410.0118"/>
<polygon fill="#c0c0c0" stroke="#c0c0c0" stroke-width="2" points="865.1292,-408.2041 856.9968,-401.4133 859.1194,-411.7933 865.1292,-408.2041"/>
</g>
<!-- 25 -->
<g id="node26" class="node">
<title>25</title>
<path fill="none" stroke="#78d856" stroke-width="2" d="M978,-257C978,-257 878,-257 878,-257 872,-257 866,-251 866,-245 866,-245 866,-233 866,-233 866,-227 872,-221 878,-221 878,-221 978,-221 978,-221 984,-221 990,-227 990,-233 990,-233 990,-245 990,-245 990,-251 984,-257 978,-257"/>
<text text-anchor="middle" x="928" y="-236.5" font-family="sans" font-size="10.00" fill="#000000">gatk_var_call_metrics</text>
</g>
<!-- 13&#45;&gt;25 -->
<g id="edge34" class="edge">
<title>13&#45;&gt;25</title>
<path fill="none" stroke="#c0c0c0" stroke-width="2" d="M892.258,-436.9555C899.0543,-399.3144 914.7857,-312.1867 922.922,-267.1246"/>
<polygon fill="#c0c0c0" stroke="#c0c0c0" stroke-width="2" points="926.3912,-267.6079 924.7238,-257.1451 919.5026,-266.364 926.3912,-267.6079"/>
</g>
<!-- 14 -->
<g id="node15" class="node">
<title>14</title>
<path fill="none" stroke="#afd856" stroke-width="2" d="M114,-185C114,-185 12,-185 12,-185 6,-185 0,-179 0,-173 0,-173 0,-156 0,-156 0,-150 6,-144 12,-144 12,-144 114,-144 114,-144 120,-144 126,-150 126,-156 126,-156 126,-173 126,-173 126,-179 120,-185 114,-185"/>
<text text-anchor="middle" x="63" y="-173" font-family="sans" font-size="10.00" fill="#000000">fastqc</text>
<text text-anchor="middle" x="63" y="-162" font-family="sans" font-size="10.00" fill="#000000">read: 1</text>
<text text-anchor="middle" x="63" y="-151" font-family="sans" font-size="10.00" fill="#000000">sample: SRR22268943</text>
</g>
<!-- 14&#45;&gt;15 -->
<g id="edge21" class="edge">
<title>14&#45;&gt;15</title>
<path fill="none" stroke="#c0c0c0" stroke-width="2" d="M126.1841,-146.385C129.162,-145.5706 132.1121,-144.7719 135,-144 189.7384,-129.3692 252.6086,-113.789 296.3519,-103.1434"/>
<polygon fill="#c0c0c0" stroke="#c0c0c0" stroke-width="2" points="297.3217,-106.5098 306.213,-100.7483 295.6695,-99.7075 297.3217,-106.5098"/>
</g>
<!-- 34 -->
<g id="node35" class="node">
<title>34</title>
<path fill="none" stroke="#56d8d0" stroke-width="2" d="M1013,-36C1013,-36 983,-36 983,-36 977,-36 971,-30 971,-24 971,-24 971,-12 971,-12 971,-6 977,0 983,0 983,0 1013,0 1013,0 1019,0 1025,-6 1025,-12 1025,-12 1025,-24 1025,-24 1025,-30 1019,-36 1013,-36"/>
<text text-anchor="middle" x="998" y="-15.5" font-family="sans" font-size="10.00" fill="#000000">all</text>
</g>
<!-- 15&#45;&gt;34 -->
<g id="edge46" class="edge">
<title>15&#45;&gt;34</title>
<path fill="none" stroke="#c0c0c0" stroke-width="2" d="M395.7262,-85.0227C516.6796,-71.5627 848.6575,-34.6193 960.5878,-22.1633"/>
<polygon fill="#c0c0c0" stroke="#c0c0c0" stroke-width="2" points="961.1668,-25.6206 970.7184,-21.036 960.3926,-18.6635 961.1668,-25.6206"/>
</g>
<!-- 16 -->
<g id="node17" class="node">
<title>16</title>
<path fill="none" stroke="#61d856" stroke-width="2" stroke-dasharray="5,2" d="M1078,-1121C1078,-1121 998,-1121 998,-1121 992,-1121 986,-1115 986,-1109 986,-1109 986,-1097 986,-1097 986,-1091 992,-1085 998,-1085 998,-1085 1078,-1085 1078,-1085 1084,-1085 1090,-1091 1090,-1097 1090,-1097 1090,-1109 1090,-1109 1090,-1115 1084,-1121 1078,-1121"/>
<text text-anchor="middle" x="1038" y="-1100.5" font-family="sans" font-size="10.00" fill="#000000">multiqc_samtools</text>
</g>
<!-- 16&#45;&gt;34 -->
<g id="edge47" class="edge">
<title>16&#45;&gt;34</title>
<path fill="none" stroke="#c0c0c0" stroke-width="2" d="M1081.9879,-1084.9847C1147.2227,-1056.8609 1262,-1001.3596 1262,-959 1262,-959 1262,-959 1262,-164.5 1262,-62.0813 1108.2088,-30.6612 1035.387,-21.5243"/>
<polygon fill="#c0c0c0" stroke="#c0c0c0" stroke-width="2" points="1035.5989,-18.0252 1025.2583,-20.3321 1034.7806,-24.9772 1035.5989,-18.0252"/>
</g>
<!-- 46 -->
<g id="node47" class="node">
<title>46</title>
<path fill="none" stroke="#56d8a2" stroke-width="2" stroke-dasharray="5,2" d="M944.5,-617C944.5,-617 837.5,-617 837.5,-617 831.5,-617 825.5,-611 825.5,-605 825.5,-605 825.5,-593 825.5,-593 825.5,-587 831.5,-581 837.5,-581 837.5,-581 944.5,-581 944.5,-581 950.5,-581 956.5,-587 956.5,-593 956.5,-593 956.5,-605 956.5,-605 956.5,-611 950.5,-617 944.5,-617"/>
<text text-anchor="middle" x="891" y="-596.5" font-family="sans" font-size="10.00" fill="#000000">gatk_apply_vqsr_indels</text>
</g>
<!-- 17&#45;&gt;46 -->
<g id="edge64" class="edge">
<title>17&#45;&gt;46</title>
<path fill="none" stroke="#c0c0c0" stroke-width="2" d="M839.4116,-652.8314C847.521,-644.3694 857.3156,-634.1489 866.182,-624.8971"/>
<polygon fill="#c0c0c0" stroke="#c0c0c0" stroke-width="2" points="868.9618,-627.0549 873.354,-617.4133 863.9079,-622.2115 868.9618,-627.0549"/>
</g>
<!-- 18 -->
<g id="node19" class="node">
<title>18</title>
<path fill="none" stroke="#56b9d8" stroke-width="2" stroke-dasharray="5,2" d="M1282,-1265C1282,-1265 1214,-1265 1214,-1265 1208,-1265 1202,-1259 1202,-1253 1202,-1253 1202,-1241 1202,-1241 1202,-1235 1208,-1229 1214,-1229 1214,-1229 1282,-1229 1282,-1229 1288,-1229 1294,-1235 1294,-1241 1294,-1241 1294,-1253 1294,-1253 1294,-1259 1288,-1265 1282,-1265"/>
<text text-anchor="middle" x="1248" y="-1244.5" font-family="sans" font-size="10.00" fill="#000000">gatk_fix_mates</text>
</g>
<!-- 19 -->
<g id="node20" class="node">
<title>19</title>
<path fill="none" stroke="#56d8b1" stroke-width="2" stroke-dasharray="5,2" d="M1221.5,-1121C1221.5,-1121 1120.5,-1121 1120.5,-1121 1114.5,-1121 1108.5,-1115 1108.5,-1109 1108.5,-1109 1108.5,-1097 1108.5,-1097 1108.5,-1091 1114.5,-1085 1120.5,-1085 1120.5,-1085 1221.5,-1085 1221.5,-1085 1227.5,-1085 1233.5,-1091 1233.5,-1097 1233.5,-1097 1233.5,-1109 1233.5,-1109 1233.5,-1115 1227.5,-1121 1221.5,-1121"/>
<text text-anchor="middle" x="1171" y="-1100.5" font-family="sans" font-size="10.00" fill="#000000">gatk_haplotype_caller</text>
</g>
<!-- 18&#45;&gt;19 -->
<g id="edge28" class="edge">
<title>18&#45;&gt;19</title>
<path fill="none" stroke="#c0c0c0" stroke-width="2" d="M1222.2778,-1228.9213C1210.7181,-1219.496 1197.9224,-1207.0124 1190,-1193 1179.2907,-1174.0583 1174.5989,-1149.7835 1172.5529,-1131.2189"/>
<polygon fill="#c0c0c0" stroke="#c0c0c0" stroke-width="2" points="1176.0179,-1130.6745 1171.6284,-1121.0317 1169.0466,-1131.3071 1176.0179,-1130.6745"/>
</g>
<!-- 21 -->
<g id="node22" class="node">
<title>21</title>
<path fill="none" stroke="#d87556" stroke-width="2" stroke-dasharray="5,2" d="M1285,-1193C1285,-1193 1211,-1193 1211,-1193 1205,-1193 1199,-1187 1199,-1181 1199,-1181 1199,-1169 1199,-1169 1199,-1163 1205,-1157 1211,-1157 1211,-1157 1285,-1157 1285,-1157 1291,-1157 1297,-1163 1297,-1169 1297,-1169 1297,-1181 1297,-1181 1297,-1187 1291,-1193 1285,-1193"/>
<text text-anchor="middle" x="1248" y="-1172.5" font-family="sans" font-size="10.00" fill="#000000">gatk_bam_index</text>
</g>
<!-- 18&#45;&gt;21 -->
<g id="edge29" class="edge">
<title>18&#45;&gt;21</title>
<path fill="none" stroke="#c0c0c0" stroke-width="2" d="M1248,-1228.8314C1248,-1221.131 1248,-1211.9743 1248,-1203.4166"/>
<polygon fill="#c0c0c0" stroke="#c0c0c0" stroke-width="2" points="1251.5001,-1203.4132 1248,-1193.4133 1244.5001,-1203.4133 1251.5001,-1203.4132"/>
</g>
<!-- 31 -->
<g id="node32" class="node">
<title>31</title>
<path fill="none" stroke="#5692d8" stroke-width="2" d="M1335.5,-1121C1335.5,-1121 1264.5,-1121 1264.5,-1121 1258.5,-1121 1252.5,-1115 1252.5,-1109 1252.5,-1109 1252.5,-1097 1252.5,-1097 1252.5,-1091 1258.5,-1085 1264.5,-1085 1264.5,-1085 1335.5,-1085 1335.5,-1085 1341.5,-1085 1347.5,-1091 1347.5,-1097 1347.5,-1097 1347.5,-1109 1347.5,-1109 1347.5,-1115 1341.5,-1121 1335.5,-1121"/>
<text text-anchor="middle" x="1300" y="-1100.5" font-family="sans" font-size="10.00" fill="#000000">gatk_bam_stats</text>
</g>
<!-- 18&#45;&gt;31 -->
<g id="edge41" class="edge">
<title>18&#45;&gt;31</title>
<path fill="none" stroke="#c0c0c0" stroke-width="2" d="M1275.9609,-1228.862C1287.554,-1219.6621 1299.7402,-1207.3809 1306,-1193 1314.5034,-1173.4647 1312.2736,-1149.2732 1308.3174,-1130.8925"/>
<polygon fill="#c0c0c0" stroke="#c0c0c0" stroke-width="2" points="1311.6954,-1129.9712 1305.9281,-1121.0836 1304.8942,-1131.6278 1311.6954,-1129.9712"/>
</g>
<!-- 32 -->
<g id="node33" class="node">
<title>32</title>
<path fill="none" stroke="#97d856" stroke-width="2" d="M1428,-1049C1428,-1049 1340,-1049 1340,-1049 1334,-1049 1328,-1043 1328,-1037 1328,-1037 1328,-1025 1328,-1025 1328,-1019 1334,-1013 1340,-1013 1340,-1013 1428,-1013 1428,-1013 1434,-1013 1440,-1019 1440,-1025 1440,-1025 1440,-1037 1440,-1037 1440,-1043 1434,-1049 1428,-1049"/>
<text text-anchor="middle" x="1384" y="-1028.5" font-family="sans" font-size="10.00" fill="#000000">samtools_mpileups</text>
</g>
<!-- 18&#45;&gt;32 -->
<g id="edge42" class="edge">
<title>18&#45;&gt;32</title>
<path fill="none" stroke="#c0c0c0" stroke-width="2" d="M1279.5696,-1228.9123C1293.862,-1219.5669 1310.1653,-1207.1527 1322,-1193 1355.1756,-1153.3263 1371.7418,-1093.9781 1379.0532,-1059.2063"/>
<polygon fill="#c0c0c0" stroke="#c0c0c0" stroke-width="2" points="1382.5147,-1059.7437 1381.0332,-1049.253 1375.6493,-1058.3779 1382.5147,-1059.7437"/>
</g>
<!-- 36 -->
<g id="node37" class="node">
<title>36</title>
<path fill="none" stroke="#d85656" stroke-width="2" stroke-dasharray="5,2" d="M1127.5,-1193C1127.5,-1193 1060.5,-1193 1060.5,-1193 1054.5,-1193 1048.5,-1187 1048.5,-1181 1048.5,-1181 1048.5,-1169 1048.5,-1169 1048.5,-1163 1054.5,-1157 1060.5,-1157 1060.5,-1157 1127.5,-1157 1127.5,-1157 1133.5,-1157 1139.5,-1163 1139.5,-1169 1139.5,-1169 1139.5,-1181 1139.5,-1181 1139.5,-1187 1133.5,-1193 1127.5,-1193"/>
<text text-anchor="middle" x="1094" y="-1172.5" font-family="sans" font-size="10.00" fill="#000000">samtools_stats</text>
</g>
<!-- 18&#45;&gt;36 -->
<g id="edge55" class="edge">
<title>18&#45;&gt;36</title>
<path fill="none" stroke="#c0c0c0" stroke-width="2" d="M1209.1393,-1228.8314C1188.7258,-1219.2874 1163.5277,-1207.5065 1141.914,-1197.4013"/>
<polygon fill="#c0c0c0" stroke="#c0c0c0" stroke-width="2" points="1143.1225,-1194.1027 1132.5813,-1193.038 1140.1577,-1200.4439 1143.1225,-1194.1027"/>
</g>
<!-- 19&#45;&gt;57 -->
<g id="edge77" class="edge">
<title>19&#45;&gt;57</title>
<path fill="none" stroke="#c0c0c0" stroke-width="2" d="M1129.3635,-1084.8314C1105.7649,-1074.5338 1076.1984,-1061.632 1051.927,-1051.0409"/>
<polygon fill="#c0c0c0" stroke="#c0c0c0" stroke-width="2" points="1053.1329,-1047.7484 1042.5677,-1046.9568 1050.3332,-1054.1642 1053.1329,-1047.7484"/>
</g>
<!-- 20 -->
<g id="node21" class="node">
<title>20</title>
<path fill="none" stroke="#a7d856" stroke-width="2" stroke-dasharray="5,2" d="M1299,-1553C1299,-1553 1197,-1553 1197,-1553 1191,-1553 1185,-1547 1185,-1541 1185,-1541 1185,-1529 1185,-1529 1185,-1523 1191,-1517 1197,-1517 1197,-1517 1299,-1517 1299,-1517 1305,-1517 1311,-1523 1311,-1529 1311,-1529 1311,-1541 1311,-1541 1311,-1547 1305,-1553 1299,-1553"/>
<text text-anchor="middle" x="1248" y="-1538" font-family="sans" font-size="10.00" fill="#000000">bwa_map</text>
<text text-anchor="middle" x="1248" y="-1527" font-family="sans" font-size="10.00" fill="#000000">sample: SRR22268943</text>
</g>
<!-- 26 -->
<g id="node27" class="node">
<title>26</title>
<path fill="none" stroke="#ced856" stroke-width="2" stroke-dasharray="5,2" d="M1280.5,-1481C1280.5,-1481 1215.5,-1481 1215.5,-1481 1209.5,-1481 1203.5,-1475 1203.5,-1469 1203.5,-1469 1203.5,-1457 1203.5,-1457 1203.5,-1451 1209.5,-1445 1215.5,-1445 1215.5,-1445 1280.5,-1445 1280.5,-1445 1286.5,-1445 1292.5,-1451 1292.5,-1457 1292.5,-1457 1292.5,-1469 1292.5,-1469 1292.5,-1475 1286.5,-1481 1280.5,-1481"/>
<text text-anchor="middle" x="1248" y="-1460.5" font-family="sans" font-size="10.00" fill="#000000">samtools_bam</text>
</g>
<!-- 20&#45;&gt;26 -->
<g id="edge35" class="edge">
<title>20&#45;&gt;26</title>
<path fill="none" stroke="#c0c0c0" stroke-width="2" d="M1248,-1516.8314C1248,-1509.131 1248,-1499.9743 1248,-1491.4166"/>
<polygon fill="#c0c0c0" stroke="#c0c0c0" stroke-width="2" points="1251.5001,-1491.4132 1248,-1481.4133 1244.5001,-1491.4133 1251.5001,-1491.4132"/>
</g>
<!-- 21&#45;&gt;19 -->
<g id="edge27" class="edge">
<title>21&#45;&gt;19</title>
<path fill="none" stroke="#c0c0c0" stroke-width="2" d="M1228.5696,-1156.8314C1219.268,-1148.1337 1207.9796,-1137.5783 1197.8714,-1128.1265"/>
<polygon fill="#c0c0c0" stroke="#c0c0c0" stroke-width="2" points="1200.1189,-1125.4363 1190.4241,-1121.1628 1195.3379,-1130.5493 1200.1189,-1125.4363"/>
</g>
<!-- 21&#45;&gt;31 -->
<g id="edge40" class="edge">
<title>21&#45;&gt;31</title>
<path fill="none" stroke="#c0c0c0" stroke-width="2" d="M1261.1218,-1156.8314C1267.0499,-1148.6232 1274.1729,-1138.7606 1280.6933,-1129.7323"/>
<polygon fill="#c0c0c0" stroke="#c0c0c0" stroke-width="2" points="1283.684,-1131.5693 1286.7015,-1121.4133 1278.0092,-1127.4708 1283.684,-1131.5693"/>
</g>
<!-- 22 -->
<g id="node23" class="node">
<title>22</title>
<path fill="none" stroke="#56d8c1" stroke-width="2" stroke-dasharray="5,2" d="M836,-257C836,-257 798,-257 798,-257 792,-257 786,-251 786,-245 786,-245 786,-233 786,-233 786,-227 792,-221 798,-221 798,-221 836,-221 836,-221 842,-221 848,-227 848,-233 848,-233 848,-245 848,-245 848,-251 842,-257 836,-257"/>
<text text-anchor="middle" x="817" y="-236.5" font-family="sans" font-size="10.00" fill="#000000">filter_vep</text>
</g>
<!-- 40 -->
<g id="node41" class="node">
<title>40</title>
<path fill="none" stroke="#56d892" stroke-width="2" stroke-dasharray="5,2" d="M939,-182.5C939,-182.5 857,-182.5 857,-182.5 851,-182.5 845,-176.5 845,-170.5 845,-170.5 845,-158.5 845,-158.5 845,-152.5 851,-146.5 857,-146.5 857,-146.5 939,-146.5 939,-146.5 945,-146.5 951,-152.5 951,-158.5 951,-158.5 951,-170.5 951,-170.5 951,-176.5 945,-182.5 939,-182.5"/>
<text text-anchor="middle" x="898" y="-162" font-family="sans" font-size="10.00" fill="#000000">csqs_and_headers</text>
</g>
<!-- 22&#45;&gt;40 -->
<g id="edge58" class="edge">
<title>22&#45;&gt;40</title>
<path fill="none" stroke="#c0c0c0" stroke-width="2" d="M836.6078,-220.9656C846.8791,-211.5186 859.6192,-199.8009 870.8268,-189.4926"/>
<polygon fill="#c0c0c0" stroke="#c0c0c0" stroke-width="2" points="873.3011,-191.9722 878.292,-182.6265 868.5624,-186.82 873.3011,-191.9722"/>
</g>
<!-- 49 -->
<g id="node50" class="node">
<title>49</title>
<path fill="none" stroke="#56c9d8" stroke-width="2" stroke-dasharray="5,2" d="M919.5,-108C919.5,-108 876.5,-108 876.5,-108 870.5,-108 864.5,-102 864.5,-96 864.5,-96 864.5,-84 864.5,-84 864.5,-78 870.5,-72 876.5,-72 876.5,-72 919.5,-72 919.5,-72 925.5,-72 931.5,-78 931.5,-84 931.5,-84 931.5,-96 931.5,-96 931.5,-102 925.5,-108 919.5,-108"/>
<text text-anchor="middle" x="898" y="-87.5" font-family="sans" font-size="10.00" fill="#000000">vcf_to_tsv</text>
</g>
<!-- 22&#45;&gt;49 -->
<g id="edge69" class="edge">
<title>22&#45;&gt;49</title>
<path fill="none" stroke="#c0c0c0" stroke-width="2" d="M817.1975,-220.9851C818.1574,-200.9244 821.9859,-168.1489 836,-144 842.5013,-132.7971 852.1836,-122.7515 861.9749,-114.4502"/>
<polygon fill="#c0c0c0" stroke="#c0c0c0" stroke-width="2" points="864.1827,-117.1662 869.792,-108.178 859.8019,-111.7064 864.1827,-117.1662"/>
</g>
<!-- 23 -->
<g id="node24" class="node">
<title>23</title>
<path fill="none" stroke="#88d856" stroke-width="2" stroke-dasharray="5,2" d="M927,-977C927,-977 865,-977 865,-977 859,-977 853,-971 853,-965 853,-965 853,-953 853,-953 853,-947 859,-941 865,-941 865,-941 927,-941 927,-941 933,-941 939,-947 939,-953 939,-953 939,-965 939,-965 939,-971 933,-977 927,-977"/>
<text text-anchor="middle" x="896" y="-956.5" font-family="sans" font-size="10.00" fill="#000000">gvcfs_as_args</text>
</g>
<!-- 41 -->
<g id="node42" class="node">
<title>41</title>
<path fill="none" stroke="#56d8d8" stroke-width="2" stroke-dasharray="5,2" d="M908.5,-905C908.5,-905 821.5,-905 821.5,-905 815.5,-905 809.5,-899 809.5,-893 809.5,-893 809.5,-881 809.5,-881 809.5,-875 815.5,-869 821.5,-869 821.5,-869 908.5,-869 908.5,-869 914.5,-869 920.5,-875 920.5,-881 920.5,-881 920.5,-893 920.5,-893 920.5,-899 914.5,-905 908.5,-905"/>
<text text-anchor="middle" x="865" y="-884.5" font-family="sans" font-size="10.00" fill="#000000">gatk_combine_vcfs</text>
</g>
<!-- 23&#45;&gt;41 -->
<g id="edge59" class="edge">
<title>23&#45;&gt;41</title>
<path fill="none" stroke="#c0c0c0" stroke-width="2" d="M888.1774,-940.8314C884.7891,-932.9617 880.7459,-923.5712 876.9924,-914.8533"/>
<polygon fill="#c0c0c0" stroke="#c0c0c0" stroke-width="2" points="880.0973,-913.214 872.9279,-905.4133 873.6679,-915.9822 880.0973,-913.214"/>
</g>
<!-- 24 -->
<g id="node25" class="node">
<title>24</title>
<path fill="none" stroke="#56c9d8" stroke-width="2" stroke-dasharray="5,2" d="M1120.5,-108C1120.5,-108 1077.5,-108 1077.5,-108 1071.5,-108 1065.5,-102 1065.5,-96 1065.5,-96 1065.5,-84 1065.5,-84 1065.5,-78 1071.5,-72 1077.5,-72 1077.5,-72 1120.5,-72 1120.5,-72 1126.5,-72 1132.5,-78 1132.5,-84 1132.5,-84 1132.5,-96 1132.5,-96 1132.5,-102 1126.5,-108 1120.5,-108"/>
<text text-anchor="middle" x="1099" y="-87.5" font-family="sans" font-size="10.00" fill="#000000">vcf_to_tsv</text>
</g>
<!-- 24&#45;&gt;34 -->
<g id="edge45" class="edge">
<title>24&#45;&gt;34</title>
<path fill="none" stroke="#c0c0c0" stroke-width="2" d="M1073.5134,-71.8314C1060.8341,-62.7927 1045.3404,-51.7476 1031.6945,-42.0198"/>
<polygon fill="#c0c0c0" stroke="#c0c0c0" stroke-width="2" points="1033.6529,-39.1176 1023.4784,-36.1628 1029.5895,-44.8176 1033.6529,-39.1176"/>
</g>
<!-- 25&#45;&gt;34 -->
<g id="edge53" class="edge">
<title>25&#45;&gt;34</title>
<path fill="none" stroke="#c0c0c0" stroke-width="2" d="M940.7585,-220.7465C947.3318,-210.6139 954.996,-197.5522 960,-185 978.679,-138.1448 989.2888,-80.0551 994.3214,-46.1951"/>
<polygon fill="#c0c0c0" stroke="#c0c0c0" stroke-width="2" points="997.8144,-46.4922 995.7626,-36.098 990.8847,-45.5031 997.8144,-46.4922"/>
</g>
<!-- 43 -->
<g id="node44" class="node">
<title>43</title>
<path fill="none" stroke="#68d856" stroke-width="2" stroke-dasharray="5,2" d="M1279,-1409C1279,-1409 1217,-1409 1217,-1409 1211,-1409 1205,-1403 1205,-1397 1205,-1397 1205,-1385 1205,-1385 1205,-1379 1211,-1373 1217,-1373 1217,-1373 1279,-1373 1279,-1373 1285,-1373 1291,-1379 1291,-1385 1291,-1385 1291,-1397 1291,-1397 1291,-1403 1285,-1409 1279,-1409"/>
<text text-anchor="middle" x="1248" y="-1388.5" font-family="sans" font-size="10.00" fill="#000000">samtools_sort</text>
</g>
<!-- 26&#45;&gt;43 -->
<g id="edge62" class="edge">
<title>26&#45;&gt;43</title>
<path fill="none" stroke="#c0c0c0" stroke-width="2" d="M1248,-1444.8314C1248,-1437.131 1248,-1427.9743 1248,-1419.4166"/>
<polygon fill="#c0c0c0" stroke="#c0c0c0" stroke-width="2" points="1251.5001,-1419.4132 1248,-1409.4133 1244.5001,-1419.4133 1251.5001,-1419.4132"/>
</g>
<!-- 27&#45;&gt;7 -->
<g id="edge9" class="edge">
<title>27&#45;&gt;7</title>
<path fill="none" stroke="#c0c0c0" stroke-width="2" d="M1022.5141,-868.8314C1023.1558,-861.131 1023.9188,-851.9743 1024.6319,-843.4166"/>
<polygon fill="#c0c0c0" stroke="#c0c0c0" stroke-width="2" points="1028.1229,-843.6694 1025.4656,-833.4133 1021.1471,-843.088 1028.1229,-843.6694"/>
</g>
<!-- 28&#45;&gt;16 -->
<g id="edge22" class="edge">
<title>28&#45;&gt;16</title>
<path fill="none" stroke="#c0c0c0" stroke-width="2" d="M993.8882,-1156.8314C1000.753,-1148.454 1009.0301,-1138.3531 1016.5511,-1129.1749"/>
<polygon fill="#c0c0c0" stroke="#c0c0c0" stroke-width="2" points="1019.2803,-1131.3665 1022.9114,-1121.4133 1013.8659,-1126.9297 1019.2803,-1131.3665"/>
</g>
<!-- 29&#45;&gt;46 -->
<g id="edge65" class="edge">
<title>29&#45;&gt;46</title>
<path fill="none" stroke="#c0c0c0" stroke-width="2" d="M919.8205,-724.7623C914.1671,-700.0928 904.0304,-655.8598 897.4105,-626.9731"/>
<polygon fill="#c0c0c0" stroke="#c0c0c0" stroke-width="2" points="900.7909,-626.0551 895.1455,-617.0896 893.9678,-627.6188 900.7909,-626.0551"/>
</g>
<!-- 30 -->
<g id="node31" class="node">
<title>30</title>
<path fill="none" stroke="#56d892" stroke-width="2" stroke-dasharray="5,2" d="M1140,-182.5C1140,-182.5 1058,-182.5 1058,-182.5 1052,-182.5 1046,-176.5 1046,-170.5 1046,-170.5 1046,-158.5 1046,-158.5 1046,-152.5 1052,-146.5 1058,-146.5 1058,-146.5 1140,-146.5 1140,-146.5 1146,-146.5 1152,-152.5 1152,-158.5 1152,-158.5 1152,-170.5 1152,-170.5 1152,-176.5 1146,-182.5 1140,-182.5"/>
<text text-anchor="middle" x="1099" y="-162" font-family="sans" font-size="10.00" fill="#000000">csqs_and_headers</text>
</g>
<!-- 30&#45;&gt;24 -->
<g id="edge33" class="edge">
<title>30&#45;&gt;24</title>
<path fill="none" stroke="#c0c0c0" stroke-width="2" d="M1099,-146.4656C1099,-138.0178 1099,-127.7542 1099,-118.3064"/>
<polygon fill="#c0c0c0" stroke="#c0c0c0" stroke-width="2" points="1102.5001,-118.1265 1099,-108.1265 1095.5001,-118.1265 1102.5001,-118.1265"/>
</g>
<!-- 31&#45;&gt;34 -->
<g id="edge49" class="edge">
<title>31&#45;&gt;34</title>
<path fill="none" stroke="#c0c0c0" stroke-width="2" d="M1300,-1084.8146C1300,-1057.4983 1300,-1004.25 1300,-959 1300,-959 1300,-959 1300,-164.5 1300,-114.7594 1278.1215,-99.9848 1237,-72 1204.4047,-49.8176 1093.7007,-31.4464 1035.0958,-22.9977"/>
<polygon fill="#c0c0c0" stroke="#c0c0c0" stroke-width="2" points="1035.5237,-19.5234 1025.1313,-21.5845 1034.5407,-26.4541 1035.5237,-19.5234"/>
</g>
<!-- 32&#45;&gt;34 -->
<g id="edge51" class="edge">
<title>32&#45;&gt;34</title>
<path fill="none" stroke="#c0c0c0" stroke-width="2" d="M1379.2344,-1012.9623C1372.4975,-985.8344 1361,-932.8236 1361,-887 1361,-887 1361,-887 1361,-164.5 1361,-118.3863 1351.1257,-99.3524 1314,-72 1270.2242,-39.7482 1109.1883,-25.2711 1035.3899,-20.2239"/>
<polygon fill="#c0c0c0" stroke="#c0c0c0" stroke-width="2" points="1035.3683,-16.7149 1025.1589,-19.5467 1034.9058,-23.6996 1035.3683,-16.7149"/>
</g>
<!-- 33 -->
<g id="node34" class="node">
<title>33</title>
<path fill="none" stroke="#56d8c1" stroke-width="2" stroke-dasharray="5,2" d="M1151,-257C1151,-257 1113,-257 1113,-257 1107,-257 1101,-251 1101,-245 1101,-245 1101,-233 1101,-233 1101,-227 1107,-221 1113,-221 1113,-221 1151,-221 1151,-221 1157,-221 1163,-227 1163,-233 1163,-233 1163,-245 1163,-245 1163,-251 1157,-257 1151,-257"/>
<text text-anchor="middle" x="1132" y="-236.5" font-family="sans" font-size="10.00" fill="#000000">filter_vep</text>
</g>
<!-- 33&#45;&gt;24 -->
<g id="edge32" class="edge">
<title>33&#45;&gt;24</title>
<path fill="none" stroke="#c0c0c0" stroke-width="2" d="M1145.0833,-220.9837C1157.5189,-201.4887 1172.7156,-169.7401 1161,-144 1155.826,-132.6322 1146.9457,-122.7268 1137.4972,-114.6122"/>
<polygon fill="#c0c0c0" stroke="#c0c0c0" stroke-width="2" points="1139.4945,-111.7281 1129.4958,-108.2243 1135.1271,-117.1986 1139.4945,-111.7281"/>
</g>
<!-- 33&#45;&gt;30 -->
<g id="edge39" class="edge">
<title>33&#45;&gt;30</title>
<path fill="none" stroke="#c0c0c0" stroke-width="2" d="M1124.0116,-220.9656C1120.1489,-212.2453 1115.4292,-201.5901 1111.1346,-191.8948"/>
<polygon fill="#c0c0c0" stroke="#c0c0c0" stroke-width="2" points="1114.2794,-190.3522 1107.0292,-182.6265 1107.8791,-193.1872 1114.2794,-190.3522"/>
</g>
<!-- 35&#45;&gt;6 -->
<g id="edge8" class="edge">
<title>35&#45;&gt;6</title>
<path fill="none" stroke="#c0c0c0" stroke-width="2" d="M1094.7189,-724.8314C1079.3702,-715.6221 1060.5502,-704.3301 1044.1177,-694.4706"/>
<polygon fill="#c0c0c0" stroke="#c0c0c0" stroke-width="2" points="1045.6471,-691.3066 1035.2714,-689.1628 1042.0456,-697.3091 1045.6471,-691.3066"/>
</g>
<!-- 36&#45;&gt;16 -->
<g id="edge23" class="edge">
<title>36&#45;&gt;16</title>
<path fill="none" stroke="#c0c0c0" stroke-width="2" d="M1079.8688,-1156.8314C1073.4189,-1148.5386 1065.6555,-1138.557 1058.5748,-1129.4533"/>
<polygon fill="#c0c0c0" stroke="#c0c0c0" stroke-width="2" points="1061.2236,-1127.158 1052.3214,-1121.4133 1055.6981,-1131.4556 1061.2236,-1127.158"/>
</g>
<!-- 37&#45;&gt;17 -->
<g id="edge24" class="edge">
<title>37&#45;&gt;17</title>
<path fill="none" stroke="#c0c0c0" stroke-width="2" d="M747.9819,-724.8314C760.2928,-715.8779 775.3107,-704.9558 788.5937,-695.2955"/>
<polygon fill="#c0c0c0" stroke="#c0c0c0" stroke-width="2" points="790.9973,-697.8752 797.0261,-689.1628 786.8801,-692.214 790.9973,-697.8752"/>
</g>
<!-- 38 -->
<g id="node39" class="node">
<title>38</title>
<path fill="none" stroke="#68d856" stroke-width="2" stroke-dasharray="5,2" d="M879,-1409C879,-1409 817,-1409 817,-1409 811,-1409 805,-1403 805,-1397 805,-1397 805,-1385 805,-1385 805,-1379 811,-1373 817,-1373 817,-1373 879,-1373 879,-1373 885,-1373 891,-1379 891,-1385 891,-1385 891,-1397 891,-1397 891,-1403 885,-1409 879,-1409"/>
<text text-anchor="middle" x="848" y="-1388.5" font-family="sans" font-size="10.00" fill="#000000">samtools_sort</text>
</g>
<!-- 56 -->
<g id="node57" class="node">
<title>56</title>
<path fill="none" stroke="#bed856" stroke-width="2" stroke-dasharray="5,2" d="M885,-1337C885,-1337 811,-1337 811,-1337 805,-1337 799,-1331 799,-1325 799,-1325 799,-1313 799,-1313 799,-1307 805,-1301 811,-1301 811,-1301 885,-1301 885,-1301 891,-1301 897,-1307 897,-1313 897,-1313 897,-1325 897,-1325 897,-1331 891,-1337 885,-1337"/>
<text text-anchor="middle" x="848" y="-1316.5" font-family="sans" font-size="10.00" fill="#000000">gatk_mark_dups</text>
</g>
<!-- 38&#45;&gt;56 -->
<g id="edge76" class="edge">
<title>38&#45;&gt;56</title>
<path fill="none" stroke="#c0c0c0" stroke-width="2" d="M848,-1372.8314C848,-1365.131 848,-1355.9743 848,-1347.4166"/>
<polygon fill="#c0c0c0" stroke="#c0c0c0" stroke-width="2" points="851.5001,-1347.4132 848,-1337.4133 844.5001,-1347.4133 851.5001,-1347.4132"/>
</g>
<!-- 39 -->
<g id="node40" class="node">
<title>39</title>
<path fill="none" stroke="#afd856" stroke-width="2" d="M258,-185C258,-185 156,-185 156,-185 150,-185 144,-179 144,-173 144,-173 144,-156 144,-156 144,-150 150,-144 156,-144 156,-144 258,-144 258,-144 264,-144 270,-150 270,-156 270,-156 270,-173 270,-173 270,-179 264,-185 258,-185"/>
<text text-anchor="middle" x="207" y="-173" font-family="sans" font-size="10.00" fill="#000000">fastqc</text>
<text text-anchor="middle" x="207" y="-162" font-family="sans" font-size="10.00" fill="#000000">read: 1</text>
<text text-anchor="middle" x="207" y="-151" font-family="sans" font-size="10.00" fill="#000000">sample: SRR22268942</text>
</g>
<!-- 39&#45;&gt;15 -->
<g id="edge20" class="edge">
<title>39&#45;&gt;15</title>
<path fill="none" stroke="#c0c0c0" stroke-width="2" d="M246.7298,-143.9453C265.3306,-134.322 287.5544,-122.8243 306.6967,-112.9208"/>
<polygon fill="#c0c0c0" stroke="#c0c0c0" stroke-width="2" points="308.5434,-115.9061 315.8168,-108.2024 305.3268,-109.6889 308.5434,-115.9061"/>
</g>
<!-- 40&#45;&gt;49 -->
<g id="edge68" class="edge">
<title>40&#45;&gt;49</title>
<path fill="none" stroke="#c0c0c0" stroke-width="2" d="M898,-146.4656C898,-138.0178 898,-127.7542 898,-118.3064"/>
<polygon fill="#c0c0c0" stroke="#c0c0c0" stroke-width="2" points="901.5001,-118.1265 898,-108.1265 894.5001,-118.1265 901.5001,-118.1265"/>
</g>
<!-- 41&#45;&gt;12 -->
<g id="edge15" class="edge">
<title>41&#45;&gt;12</title>
<path fill="none" stroke="#c0c0c0" stroke-width="2" d="M861.2149,-868.8314C859.6106,-861.131 857.703,-851.9743 855.9201,-843.4166"/>
<polygon fill="#c0c0c0" stroke="#c0c0c0" stroke-width="2" points="859.3021,-842.4892 853.8361,-833.4133 852.4493,-843.9169 859.3021,-842.4892"/>
</g>
<!-- 42&#45;&gt;34 -->
<g id="edge44" class="edge">
<title>42&#45;&gt;34</title>
<path fill="none" stroke="#c0c0c0" stroke-width="2" d="M653.5898,-1084.7087C627.5938,-1059.291 586,-1010.5656 586,-959 586,-959 586,-959 586,-164.5 586,-107.4494 624.5332,-98.6058 675,-72 724.1344,-46.0967 886.4269,-28.2772 960.5199,-21.2915"/>
<polygon fill="#c0c0c0" stroke="#c0c0c0" stroke-width="2" points="961.1535,-24.7478 970.7878,-20.3397 960.5074,-17.7777 961.1535,-24.7478"/>
</g>
<!-- 55 -->
<g id="node56" class="node">
<title>55</title>
<path fill="none" stroke="#bed856" stroke-width="2" stroke-dasharray="5,2" d="M1285,-1337C1285,-1337 1211,-1337 1211,-1337 1205,-1337 1199,-1331 1199,-1325 1199,-1325 1199,-1313 1199,-1313 1199,-1307 1205,-1301 1211,-1301 1211,-1301 1285,-1301 1285,-1301 1291,-1301 1297,-1307 1297,-1313 1297,-1313 1297,-1325 1297,-1325 1297,-1331 1291,-1337 1285,-1337"/>
<text text-anchor="middle" x="1248" y="-1316.5" font-family="sans" font-size="10.00" fill="#000000">gatk_mark_dups</text>
</g>
<!-- 43&#45;&gt;55 -->
<g id="edge75" class="edge">
<title>43&#45;&gt;55</title>
<path fill="none" stroke="#c0c0c0" stroke-width="2" d="M1248,-1372.8314C1248,-1365.131 1248,-1355.9743 1248,-1347.4166"/>
<polygon fill="#c0c0c0" stroke="#c0c0c0" stroke-width="2" points="1251.5001,-1347.4132 1248,-1337.4133 1244.5001,-1347.4133 1251.5001,-1347.4132"/>
</g>
<!-- 44 -->
<g id="node45" class="node">
<title>44</title>
<path fill="none" stroke="#78d856" stroke-width="2" d="M1068,-329C1068,-329 968,-329 968,-329 962,-329 956,-323 956,-317 956,-317 956,-305 956,-305 956,-299 962,-293 968,-293 968,-293 1068,-293 1068,-293 1074,-293 1080,-299 1080,-305 1080,-305 1080,-317 1080,-317 1080,-323 1074,-329 1068,-329"/>
<text text-anchor="middle" x="1018" y="-308.5" font-family="sans" font-size="10.00" fill="#000000">gatk_var_call_metrics</text>
</g>
<!-- 44&#45;&gt;34 -->
<g id="edge50" class="edge">
<title>44&#45;&gt;34</title>
<path fill="none" stroke="#c0c0c0" stroke-width="2" d="M1016.7489,-292.6715C1013.3676,-243.1358 1004.0275,-106.303 999.9484,-46.5444"/>
<polygon fill="#c0c0c0" stroke="#c0c0c0" stroke-width="2" points="1003.4236,-46.0599 999.2506,-36.3215 996.4398,-46.5367 1003.4236,-46.0599"/>
</g>
<!-- 45 -->
<g id="node46" class="node">
<title>45</title>
<path fill="none" stroke="#a7d856" stroke-width="2" stroke-dasharray="5,2" d="M899,-1553C899,-1553 797,-1553 797,-1553 791,-1553 785,-1547 785,-1541 785,-1541 785,-1529 785,-1529 785,-1523 791,-1517 797,-1517 797,-1517 899,-1517 899,-1517 905,-1517 911,-1523 911,-1529 911,-1529 911,-1541 911,-1541 911,-1547 905,-1553 899,-1553"/>
<text text-anchor="middle" x="848" y="-1538" font-family="sans" font-size="10.00" fill="#000000">bwa_map</text>
<text text-anchor="middle" x="848" y="-1527" font-family="sans" font-size="10.00" fill="#000000">sample: SRR22268942</text>
</g>
<!-- 47 -->
<g id="node48" class="node">
<title>47</title>
<path fill="none" stroke="#ced856" stroke-width="2" stroke-dasharray="5,2" d="M880.5,-1481C880.5,-1481 815.5,-1481 815.5,-1481 809.5,-1481 803.5,-1475 803.5,-1469 803.5,-1469 803.5,-1457 803.5,-1457 803.5,-1451 809.5,-1445 815.5,-1445 815.5,-1445 880.5,-1445 880.5,-1445 886.5,-1445 892.5,-1451 892.5,-1457 892.5,-1457 892.5,-1469 892.5,-1469 892.5,-1475 886.5,-1481 880.5,-1481"/>
<text text-anchor="middle" x="848" y="-1460.5" font-family="sans" font-size="10.00" fill="#000000">samtools_bam</text>
</g>
<!-- 45&#45;&gt;47 -->
<g id="edge66" class="edge">
<title>45&#45;&gt;47</title>
<path fill="none" stroke="#c0c0c0" stroke-width="2" d="M848,-1516.8314C848,-1509.131 848,-1499.9743 848,-1491.4166"/>
<polygon fill="#c0c0c0" stroke="#c0c0c0" stroke-width="2" points="851.5001,-1491.4132 848,-1481.4133 844.5001,-1491.4133 851.5001,-1491.4132"/>
</g>
<!-- 46&#45;&gt;13 -->
<g id="edge17" class="edge">
<title>46&#45;&gt;13</title>
<path fill="none" stroke="#c0c0c0" stroke-width="2" d="M884.6052,-580.7647C881.3154,-570.4187 877.6558,-557.1474 876,-545 873.839,-529.1466 874.1144,-524.8885 876,-509 877.0068,-500.5166 878.8736,-491.4376 880.8847,-483.1913"/>
<polygon fill="#c0c0c0" stroke="#c0c0c0" stroke-width="2" points="884.3278,-483.8576 883.4554,-473.2988 877.5528,-482.0971 884.3278,-483.8576"/>
</g>
<!-- 53 -->
<g id="node54" class="node">
<title>53</title>
<path fill="none" stroke="#d89c56" stroke-width="2" stroke-dasharray="5,2" d="M968.5,-545C968.5,-545 897.5,-545 897.5,-545 891.5,-545 885.5,-539 885.5,-533 885.5,-533 885.5,-521 885.5,-521 885.5,-515 891.5,-509 897.5,-509 897.5,-509 968.5,-509 968.5,-509 974.5,-509 980.5,-515 980.5,-521 980.5,-521 980.5,-533 980.5,-533 980.5,-539 974.5,-545 968.5,-545"/>
<text text-anchor="middle" x="933" y="-524.5" font-family="sans" font-size="10.00" fill="#000000">index_vqsr_vcfs</text>
</g>
<!-- 46&#45;&gt;53 -->
<g id="edge73" class="edge">
<title>46&#45;&gt;53</title>
<path fill="none" stroke="#c0c0c0" stroke-width="2" d="M901.5984,-580.8314C906.2877,-572.7925 911.9028,-563.1666 917.0798,-554.2918"/>
<polygon fill="#c0c0c0" stroke="#c0c0c0" stroke-width="2" points="920.2434,-555.8146 922.2589,-545.4133 914.1969,-552.2875 920.2434,-555.8146"/>
</g>
<!-- 47&#45;&gt;38 -->
<g id="edge57" class="edge">
<title>47&#45;&gt;38</title>
<path fill="none" stroke="#c0c0c0" stroke-width="2" d="M848,-1444.8314C848,-1437.131 848,-1427.9743 848,-1419.4166"/>
<polygon fill="#c0c0c0" stroke="#c0c0c0" stroke-width="2" points="851.5001,-1419.4132 848,-1409.4133 844.5001,-1419.4133 851.5001,-1419.4132"/>
</g>
<!-- 48&#45;&gt;22 -->
<g id="edge30" class="edge">
<title>48&#45;&gt;22</title>
<path fill="none" stroke="#c0c0c0" stroke-width="2" d="M826.7196,-292.8314C825.3292,-285.131 823.6759,-275.9743 822.1308,-267.4166"/>
<polygon fill="#c0c0c0" stroke="#c0c0c0" stroke-width="2" points="825.5458,-266.6322 820.3246,-257.4133 818.6572,-267.8761 825.5458,-266.6322"/>
</g>
<!-- 49&#45;&gt;34 -->
<g id="edge52" class="edge">
<title>49&#45;&gt;34</title>
<path fill="none" stroke="#c0c0c0" stroke-width="2" d="M923.2342,-71.8314C935.788,-62.7927 951.1283,-51.7476 964.6391,-42.0198"/>
<polygon fill="#c0c0c0" stroke="#c0c0c0" stroke-width="2" points="966.7036,-44.8463 972.7739,-36.1628 962.6134,-39.1655 966.7036,-44.8463"/>
</g>
<!-- 50&#45;&gt;0 -->
<g id="edge1" class="edge">
<title>50&#45;&gt;0</title>
<path fill="none" stroke="#c0c0c0" stroke-width="2" d="M1110.2711,-436.8314C1111.2336,-429.131 1112.3782,-419.9743 1113.4479,-411.4166"/>
<polygon fill="#c0c0c0" stroke="#c0c0c0" stroke-width="2" points="1116.9309,-411.7702 1114.6983,-401.4133 1109.9849,-410.9019 1116.9309,-411.7702"/>
</g>
<!-- 50&#45;&gt;44 -->
<g id="edge63" class="edge">
<title>50&#45;&gt;44</title>
<path fill="none" stroke="#c0c0c0" stroke-width="2" d="M1096.6014,-436.7623C1080.9802,-411.7682 1052.8077,-366.6924 1034.7755,-337.8409"/>
<polygon fill="#c0c0c0" stroke="#c0c0c0" stroke-width="2" points="1037.574,-335.7146 1029.306,-329.0896 1031.638,-339.4246 1037.574,-335.7146"/>
</g>
<!-- 51&#45;&gt;33 -->
<g id="edge43" class="edge">
<title>51&#45;&gt;33</title>
<path fill="none" stroke="#c0c0c0" stroke-width="2" d="M1132,-292.8314C1132,-285.131 1132,-275.9743 1132,-267.4166"/>
<polygon fill="#c0c0c0" stroke="#c0c0c0" stroke-width="2" points="1135.5001,-267.4132 1132,-257.4133 1128.5001,-267.4133 1135.5001,-267.4132"/>
</g>
<!-- 52 -->
<g id="node53" class="node">
<title>52</title>
<path fill="none" stroke="#afd856" stroke-width="2" d="M402,-185C402,-185 300,-185 300,-185 294,-185 288,-179 288,-173 288,-173 288,-156 288,-156 288,-150 294,-144 300,-144 300,-144 402,-144 402,-144 408,-144 414,-150 414,-156 414,-156 414,-173 414,-173 414,-179 408,-185 402,-185"/>
<text text-anchor="middle" x="351" y="-173" font-family="sans" font-size="10.00" fill="#000000">fastqc</text>
<text text-anchor="middle" x="351" y="-162" font-family="sans" font-size="10.00" fill="#000000">read: 2</text>
<text text-anchor="middle" x="351" y="-151" font-family="sans" font-size="10.00" fill="#000000">sample: SRR22268943</text>
</g>
<!-- 52&#45;&gt;15 -->
<g id="edge19" class="edge">
<title>52&#45;&gt;15</title>
<path fill="none" stroke="#c0c0c0" stroke-width="2" d="M351,-143.7476C351,-135.8767 351,-126.7743 351,-118.3232"/>
<polygon fill="#c0c0c0" stroke="#c0c0c0" stroke-width="2" points="354.5001,-118.1086 351,-108.1087 347.5001,-118.1087 354.5001,-118.1086"/>
</g>
<!-- 53&#45;&gt;13 -->
<g id="edge16" class="edge">
<title>53&#45;&gt;13</title>
<path fill="none" stroke="#c0c0c0" stroke-width="2" d="M921.8969,-508.8314C916.9326,-500.7079 910.9778,-490.9637 905.5072,-482.0118"/>
<polygon fill="#c0c0c0" stroke="#c0c0c0" stroke-width="2" points="908.4536,-480.121 900.2526,-473.4133 902.4806,-483.7712 908.4536,-480.121"/>
</g>
<!-- 54&#45;&gt;34 -->
<g id="edge48" class="edge">
<title>54&#45;&gt;34</title>
<path fill="none" stroke="#c0c0c0" stroke-width="2" d="M835.8184,-1025.6901C757.2322,-1014.822 624,-982.3381 624,-887 624,-887 624,-887 624,-164.5 624,-92.6644 866.2358,-41.5677 960.8088,-24.356"/>
<polygon fill="#c0c0c0" stroke="#c0c0c0" stroke-width="2" points="961.5765,-27.7743 970.8016,-22.5639 960.3408,-20.8842 961.5765,-27.7743"/>
</g>
<!-- 55&#45;&gt;18 -->
<g id="edge26" class="edge">
<title>55&#45;&gt;18</title>
<path fill="none" stroke="#c0c0c0" stroke-width="2" d="M1248,-1300.8314C1248,-1293.131 1248,-1283.9743 1248,-1275.4166"/>
<polygon fill="#c0c0c0" stroke="#c0c0c0" stroke-width="2" points="1251.5001,-1275.4132 1248,-1265.4133 1244.5001,-1275.4133 1251.5001,-1275.4132"/>
</g>
<!-- 56&#45;&gt;11 -->
<g id="edge14" class="edge">
<title>56&#45;&gt;11</title>
<path fill="none" stroke="#c0c0c0" stroke-width="2" d="M848,-1300.8314C848,-1293.131 848,-1283.9743 848,-1275.4166"/>
<polygon fill="#c0c0c0" stroke="#c0c0c0" stroke-width="2" points="851.5001,-1275.4132 848,-1265.4133 844.5001,-1275.4133 851.5001,-1275.4132"/>
</g>
<!-- 57&#45;&gt;3 -->
<g id="edge5" class="edge">
<title>57&#45;&gt;3</title>
<path fill="none" stroke="#c0c0c0" stroke-width="2" d="M1006.5047,-1012.8314C1006.7186,-1005.131 1006.9729,-995.9743 1007.2106,-987.4166"/>
<polygon fill="#c0c0c0" stroke="#c0c0c0" stroke-width="2" points="1010.7094,-987.5066 1007.4885,-977.4133 1003.7121,-987.3122 1010.7094,-987.5066"/>
</g>
<!-- 57&#45;&gt;23 -->
<g id="edge31" class="edge">
<title>57&#45;&gt;23</title>
<path fill="none" stroke="#c0c0c0" stroke-width="2" d="M978.2424,-1012.8314C964.303,-1003.7074 947.2402,-992.539 932.2769,-982.7449"/>
<polygon fill="#c0c0c0" stroke="#c0c0c0" stroke-width="2" points="934.0326,-979.711 923.7488,-977.1628 930.199,-985.5679 934.0326,-979.711"/>
</g>
</g>
</svg>
